<?xml version="1.0" encoding="utf-8"?>
<!-- Generator: Adobe Illustrator 14.0.0, SVG Export Plug-In . SVG Version: 6.00 Build 43363)  -->
<!DOCTYPE svg PUBLIC "-//W3C//DTD SVG 1.1//EN" "http://www.w3.org/Graphics/SVG/1.1/DTD/svg11.dtd">
<svg version="1.1" id="Layer_1" xmlns="http://www.w3.org/2000/svg" xmlns:xlink="http://www.w3.org/1999/xlink" x="0px" y="0px"
	 width="650px" height="105px" viewBox="0 0 650 105" enable-background="new 0 0 650 105" xml:space="preserve">
<linearGradient id="SVGID_1_" gradientUnits="userSpaceOnUse" x1="0" y1="52.5005" x2="650.002" y2="52.5005">
	<stop  offset="0" style="stop-color:#FFFFFF"/>
	<stop  offset="1" style="stop-color:#CDDAFF"/>
</linearGradient>
<path fill="url(#SVGID_1_)" d="M92.74,28.118c0,1.69-0.28,3.473-0.842,5.34c-0.562,1.869-1.421,3.71-2.578,5.525
	c-1.157,1.816-2.639,3.57-4.443,5.261c-1.807,1.692-3.973,3.209-6.497,4.548c-2.525,1.34-5.401,2.46-8.628,3.358
	c-3.226,0.898-6.855,1.464-10.887,1.698c2.434,0.906,4.468,2.074,6.102,3.504c1.634,1.431,3,3.023,4.096,4.785
	c1.096,1.76,2.021,3.689,2.779,5.79c0.757,2.101,1.319,4.056,1.687,5.864c0.368,1.809,0.768,3.549,1.201,5.219
	c0.432,1.672,0.896,3.172,1.39,4.499c0.494,1.327,1.115,2.39,1.864,3.187s1.753,1.193,3.014,1.193c1.193,0,2.501-0.201,3.923-0.604
	s2.879-0.974,4.371-1.711c1.491-0.737,2.966-1.614,4.423-2.634c1.457-1.018,2.818-2.142,4.082-3.371l6.108,10.322
	c0-0.035-0.334,0.185-1,0.658c-0.667,0.475-1.598,1.071-2.792,1.791c-1.193,0.719-2.606,1.51-4.239,2.369s-3.433,1.659-5.398,2.396
	c-1.966,0.736-4.047,1.351-6.241,1.843c-2.194,0.491-4.432,0.737-6.711,0.737c-2.577,0-4.774-0.633-6.592-1.896
	c-1.819-1.265-3.362-2.931-4.633-5.002c-1.271-2.07-2.329-4.431-3.177-7.08s-1.535-5.202-2.063-7.659
	c-0.528-2.453-1.099-5.105-1.71-7.953c-0.612-2.848-1.265-5.367-1.959-7.562c-0.693-2.196-1.544-3.927-2.551-5.188
	c-1.008-1.266-2.269-1.896-3.779-1.896h-3.663c-1.084,7.588-2.12,14.439-3.105,20.556c-0.986,6.117-2.291,11.306-3.916,15.571
	c-1.626,4.266-3.662,7.525-6.109,9.781c-2.447,2.256-5.443,3.384-8.989,3.384c-2.809,0-5.38-0.535-7.715-1.605
	c-2.335-1.071-4.442-2.538-6.319-4.396c-1.878-1.861-3.521-4.038-4.924-6.531c-1.405-2.491-2.572-5.168-3.502-8.03
	c-0.931-2.859-1.633-5.818-2.107-8.873C0.237,72.249,0,69.213,0,66.193c0-5.441,0.677-10.771,2.03-15.983
	c1.354-5.214,3.305-10.138,5.855-14.772c2.549-4.635,5.634-8.892,9.256-12.771c3.621-3.879,7.691-7.232,12.208-10.059
	c4.518-2.826,9.44-5.029,14.768-6.609c5.326-1.58,10.96-2.369,16.903-2.369c2.63,0,5.243,0.245,7.838,0.736
	c2.595,0.492,5.067,1.211,7.417,2.16c2.351,0.947,4.534,2.123,6.549,3.527c2.017,1.404,3.752,3.012,5.208,4.819
	c1.456,1.808,2.604,3.817,3.445,6.029C92.318,23.113,92.74,25.52,92.74,28.118z M60.073,15.425c-5.804,0-10.983,0.809-15.539,2.424
	c-4.555,1.615-8.556,3.791-12.004,6.53c-3.448,2.737-6.385,5.916-8.812,9.532c-2.427,3.615-4.396,7.407-5.909,11.374
	c-1.513,3.969-2.612,7.988-3.298,12.061c-0.687,4.073-1.029,7.952-1.029,11.639c0,2.845,0.245,5.697,0.738,8.56
	c0.491,2.86,1.263,5.433,2.316,7.714c1.054,2.282,2.414,4.135,4.083,5.557c1.667,1.422,3.676,2.134,6.029,2.134
	c1.194,0,2.247-0.466,3.16-1.396s1.72-2.177,2.422-3.739c0.703-1.562,1.317-3.369,1.843-5.424c0.527-2.055,0.9-4.189,1.121-6.408
	c0.22-2.217,0.443-4.453,0.666-6.707c0.225-2.252,0.434-4.356,0.629-6.312c0.194-1.956,0.331-3.688,0.412-5.198
	s0.121-2.664,0.121-3.464c-2.703-1.233-4.758-2.385-6.162-3.453c-1.404-1.067-2.106-2.303-2.106-3.704
	c0-0.388,0.025-0.853,0.079-1.396c0.052-0.542,0.165-1.046,0.338-1.513c0.173-0.464,0.425-0.862,0.755-1.191
	c0.33-0.329,0.772-0.493,1.329-0.493c0.244,0,0.73-0.014,1.459-0.044c0.729-0.029,1.494-0.064,2.293-0.104
	c0.799-0.04,1.537-0.074,2.214-0.104c0.678-0.027,1.12-0.042,1.33-0.042l0.052,0.082c0.035-0.768,0.097-1.591,0.186-2.472
	c0.087-0.881,0.237-1.882,0.45-3.005c0.212-1.124,0.521-2.256,0.929-3.397c0.407-1.141,0.947-2.176,1.62-3.107
	c0.672-0.93,1.477-1.685,2.415-2.265c0.938-0.578,2.079-0.869,3.425-0.869c1.77,0,2.946,0.408,3.53,1.222s0.876,1.852,0.876,3.118
	v0.488c-0.068,1.375-0.462,3.191-1.183,5.451c-0.721,2.26-1.389,4.872-2.006,7.837c6.021-0.107,10.988-0.696,14.903-1.766
	c3.916-1.07,7.018-2.42,9.308-4.051s3.897-3.416,4.82-5.354c0.923-1.939,1.385-3.815,1.385-5.628c0-1.721-0.412-3.371-1.235-4.95
	c-0.824-1.58-2.042-2.976-3.654-4.188c-1.612-1.211-3.609-2.176-5.992-2.896C65.995,15.786,63.227,15.425,60.073,15.425z
	 M111.83,94.632c-3.277,0-6.146-0.606-8.605-1.821c-2.458-1.217-4.508-2.851-6.147-4.906c-1.639-2.055-2.868-4.432-3.688-7.129
	c-0.819-2.697-1.229-5.53-1.229-8.496c0-1.94,0.366-4.252,1.101-6.939c0.733-2.686,1.492-5.066,2.278-7.146
	c0.785-2.077,1.772-4.062,2.959-5.95c1.187-1.888,2.575-3.552,4.165-4.989c1.588-1.438,3.37-2.582,5.342-3.431
	c1.973-0.85,4.165-1.273,6.574-1.273c1.969,0,3.796,0.315,5.482,0.946c1.688,0.631,3.155,1.517,4.403,2.656
	c1.247,1.14,2.223,2.517,2.926,4.129c0.704,1.613,1.055,3.419,1.055,5.418c0,2.128-0.712,4.515-2.138,7.156
	c-1.424,2.645-3.087,4.91-4.987,6.797c-1.9,1.89-4.16,3.57-6.781,5.048c-2.621,1.477-5.462,2.627-8.523,3.45
	c0.528,0.927,1.048,1.699,1.559,2.317c0.51,0.617,1.03,1.099,1.559,1.441c0.529,0.344,1.083,0.583,1.665,0.72
	c0.581,0.139,1.207,0.206,1.877,0.206c2.107,0,4.326-0.41,6.661-1.233c2.335-0.826,4.608-1.854,6.82-3.092
	c2.213-1.236,4.301-2.583,6.268-4.042c1.965-1.459,3.633-2.841,5.003-4.146l6.793,6.9c-3.089,3.291-6.372,6.2-9.848,8.731
	c-1.51,1.085-3.133,2.151-4.872,3.2c-1.737,1.048-3.564,1.979-5.477,2.793c-1.915,0.812-3.897,1.464-5.951,1.951
	C116.021,94.389,113.939,94.632,111.83,94.632z M104.801,69.549c1.268,0,2.651-0.316,4.148-0.951
	c1.499-0.636,2.89-1.451,4.176-2.447c1.287-0.994,2.547-2.334,3.779-4.018c1.234-1.681,1.851-3.07,1.851-4.17
	c0-1.544-0.291-2.814-0.872-3.811c-0.582-0.996-1.295-1.493-2.141-1.493c-1.516,0-2.811,0.275-3.886,0.823
	c-1.074,0.551-1.972,1.263-2.695,2.138c-0.722,0.875-1.304,1.87-1.744,2.985c-0.441,1.117-0.953,2.498-1.533,4.146
	c-0.582,1.646-0.908,3.003-0.979,4.067C104.835,67.884,104.801,68.793,104.801,69.549z M189.162,81.581
	c-0.809,1.136-1.889,2.468-3.24,3.993c-1.351,1.527-2.87,2.982-4.555,4.367c-1.685,1.385-3.494,2.557-5.424,3.516
	c-1.931,0.959-3.863,1.438-5.793,1.438c-2.332,0-4.277-0.737-5.834-2.215c-1.558-1.478-2.903-3.623-4.035-6.438
	c-0.85,0.972-1.894,1.963-3.133,2.97c-1.239,1.009-2.593,1.921-4.061,2.737c-1.469,0.814-3,1.484-4.592,2.005
	c-1.593,0.522-3.186,0.782-4.778,0.782c-1.686,0-3.327-0.346-4.924-1.035c-1.598-0.691-3.011-1.682-4.24-2.977
	c-1.229-1.293-2.212-2.869-2.949-4.729c-0.738-1.859-1.106-3.959-1.106-6.296c0-2.623,0.371-5.317,1.112-8.081
	c0.742-2.764,1.889-5.755,3.444-8.975c1.553-3.22,3.222-6,5.006-8.345c1.783-2.344,3.734-4.39,5.854-6.14
	c2.119-1.749,4.353-3.14,6.702-4.171c2.349-1.032,4.741-1.55,7.178-1.55c0.812,0,1.448,0.161,1.908,0.479
	c0.459,0.319,0.838,0.683,1.139,1.091c0.299,0.408,0.591,0.807,0.874,1.197c0.282,0.39,0.635,0.674,1.06,0.853
	c0.423,0.177,0.856,0.292,1.298,0.345c0.441,0.054,0.892,0.08,1.35,0.08c0.389,0,0.786-0.008,1.191-0.026
	c0.407-0.019,0.805-0.027,1.193-0.027c0.53,0,1.025,0.054,1.483,0.16c0.459,0.107,0.865,0.337,1.217,0.691
	c0.353,0.355,0.625,0.853,0.818,1.49c0.193,0.639,0.29,1.508,0.29,2.607c0,1.68-0.176,3.54-0.527,5.585
	c-0.351,2.048-0.753,4.144-1.206,6.289c-0.454,2.146-0.97,4.595-1.549,7.343c-0.579,2.746-0.869,5.062-0.869,6.944
	c0,1.608,0.149,2.867,0.448,3.774c0.298,0.904,0.939,1.358,1.923,1.358c0.737,0,1.509-0.183,2.316-0.548s1.624-0.843,2.45-1.436
	c0.824-0.592,1.649-1.263,2.475-2.01c0.824-0.75,1.606-1.523,2.343-2.324c1.72-1.881,3.458-4.002,5.214-6.369L189.162,81.581z
	 M143.982,77.455c0,0.906,0.061,1.785,0.184,2.636c0.124,0.851,0.343,1.61,0.66,2.28c0.316,0.671,0.738,1.214,1.266,1.629
	c0.527,0.417,1.196,0.625,2.004,0.625c1.301,0,2.48-0.564,3.535-1.697c1.055-1.131,1.97-2.49,2.744-4.082
	c0.773-1.59,1.398-3.232,1.873-4.931c0.475-1.696,0.783-3.11,0.923-4.241l3.928-17.12c-1.44,0-2.844,0.356-4.213,1.07
	c-1.369,0.713-2.659,1.681-3.871,2.896c-1.211,1.22-2.326,2.61-3.344,4.176c-1.019,1.568-2.02,3.498-3.001,5.797
	c-0.983,2.298-1.677,4.316-2.08,6.056C144.183,74.288,143.982,75.924,143.982,77.455z M201.356,94.632
	c-3.252,0-6.105-0.598-8.562-1.791c-2.456-1.192-4.516-2.791-6.175-4.792c-1.662-2.002-2.916-4.318-3.764-6.951
	c-0.849-2.634-1.273-5.373-1.273-8.216c0-2.034,0.353-4.478,1.058-7.321c0.707-2.844,1.474-5.326,2.304-7.451
	c0.829-2.123,1.852-4.15,3.07-6.083c1.218-1.93,2.629-3.624,4.235-5.081c1.606-1.457,3.398-2.615,5.375-3.477
	c1.977-0.859,4.146-1.29,6.511-1.29c2.128,0,4.1,0.308,5.912,0.921c1.812,0.616,3.362,1.467,4.65,2.555
	c1.289,1.089,2.297,2.379,3.026,3.871c0.728,1.492,1.093,3.099,1.093,4.817c0,1.195-0.171,2.371-0.514,3.53
	c-0.342,1.158-1.007,2.52-1.995,4.081c-0.987,1.562-1.946,2.625-2.877,3.187c-0.931,0.562-1.985,0.842-3.162,0.842
	c-1.777,0-2.923-0.438-3.44-1.316c-0.852-1.368-1.12-2.58-0.806-3.633c0.105-0.561,0.419-1.86,0.944-3.897
	c0.07-0.28,0.087-0.911,0.053-1.896c0-0.842-0.088-1.545-0.263-2.106c-0.174-0.561-0.558-0.843-1.152-0.843
	c-1.434,0-2.657,0.343-3.67,1.027c-1.014,0.686-1.879,1.58-2.596,2.687c-0.716,1.104-1.425,2.668-2.124,4.687
	c-0.7,2.021-1.197,3.713-1.494,5.084c-0.298,1.367-0.481,2.677-0.551,3.924c-0.07,1.246-0.105,2.289-0.105,3.132
	c0,1.265,0.114,2.58,0.341,3.95c0.227,1.369,0.681,2.625,1.362,3.766c0.682,1.143,1.565,2.089,2.649,2.844
	c1.083,0.756,2.482,1.133,4.195,1.133c1.685,0,3.545-0.519,5.582-1.555c2.035-1.035,4.081-2.343,6.135-3.923
	c2.054-1.581,4.01-3.317,5.872-5.214c1.86-1.896,3.457-3.688,4.792-5.372l3.634,6.108c-2.633,3.758-5.478,7.109-8.532,10.06
	c-1.299,1.265-2.712,2.493-4.239,3.687s-3.125,2.256-4.792,3.188s-3.406,1.686-5.214,2.264
	C205.041,94.342,203.21,94.632,201.356,94.632z M268.425,82.834c-3.375,1.968-6.381,3.688-9.018,5.162
	c-2.637,1.475-4.984,2.703-7.041,3.688c-2.057,0.983-3.884,1.721-5.484,2.211c-1.599,0.492-3.05,0.737-4.351,0.737
	c-2.654,0-4.994-0.808-7.019-2.424c-2.025-1.612-3.719-3.938-5.081-6.978c-1.362-3.035-2.383-6.715-3.064-11.033
	c-0.681-4.317-1.021-9.18-1.021-14.588c0-2.105,0.086-4.353,0.261-6.74c0.173-2.387,0.417-4.757,0.731-7.109
	c-1.061-0.157-1.883-0.303-2.465-0.439c-0.583-0.137-1.203-0.274-1.856-0.41c-0.654-0.137-1.484-0.283-2.492-0.44
	c-1.006-0.155-2.464-0.351-4.374-0.586c-0.847-0.117-1.501-0.341-1.961-0.674c-0.458-0.331-0.794-0.724-1.007-1.172
	c-0.212-0.449-0.335-0.918-0.372-1.407c-0.034-0.489-0.052-0.908-0.052-1.26c0-0.555,0.345-0.977,1.032-1.269
	c0.689-0.291,1.571-0.51,2.646-0.655c1.077-0.146,2.259-0.228,3.547-0.246c1.289-0.017,2.523-0.008,3.706,0.027
	c1.182,0.035,2.241,0.061,3.176,0.078c0.935,0.018,1.58-0.008,1.932-0.078c0.947-4.726,2.146-9.304,3.601-13.731
	c1.455-4.43,3.084-8.367,4.89-11.816c1.805-3.447,3.776-6.213,5.914-8.297c2.138-2.083,4.381-3.125,6.729-3.125
	c1.511,0,2.889,0.421,4.136,1.263c1.248,0.843,2.311,1.965,3.188,3.367c0.879,1.403,1.555,3.043,2.028,4.919
	c0.474,1.877,0.712,3.832,0.712,5.867c0,1.684-0.246,3.461-0.738,5.331c-0.493,1.872-1.16,3.778-2.003,5.72
	c-0.842,1.939-1.834,3.906-2.976,5.897c-1.142,1.993-2.344,3.968-3.608,5.925c0.317-0.116,0.844-0.138,1.583-0.067
	c0.737,0.072,1.588,0.121,2.555,0.149c0.965,0.027,2.01,0.056,3.134,0.084c1.123,0.027,2.211,0.059,3.265,0.095
	c1.054,0.035,2.036,0.07,2.95,0.105c0.912,0.035,1.667,0.07,2.264,0.104c0.702,0.039,1.211,0.431,1.527,1.173
	c0.316,0.742,0.474,1.68,0.474,2.812c0,1.313-0.352,2.381-1.055,3.205s-1.476,1.235-2.319,1.235h-20.244
	c-1.023,1.405-2.055,2.783-3.096,4.135c-1.04,1.352-2,2.571-2.883,3.659c-0.14,2.178-0.262,4.318-0.368,6.426
	c-0.035,0.914-0.071,1.854-0.105,2.816c-0.035,0.967-0.07,1.922-0.106,2.871c-0.035,0.947-0.062,1.86-0.078,2.737
	c-0.019,0.878-0.026,1.687-0.026,2.422c0,1.897,0.175,3.494,0.528,4.794c0.352,1.299,0.864,2.361,1.534,3.187
	s1.488,1.422,2.458,1.79c0.969,0.367,2.053,0.553,3.251,0.553c0.738,0,1.66-0.175,2.768-0.525c1.107-0.351,2.319-0.834,3.637-1.449
	c1.319-0.612,2.707-1.342,4.165-2.185s2.899-1.766,4.323-2.766c1.422-1,2.785-2.054,4.085-3.16c1.3-1.104,2.477-2.238,3.532-3.396
	L268.425,82.834L268.425,82.834z M251.573,16.146c0-0.384-0.028-0.812-0.081-1.285c-0.052-0.472-0.167-0.916-0.343-1.336
	c-0.176-0.42-0.449-0.77-0.819-1.049c-0.371-0.28-0.891-0.42-1.56-0.42c-0.916,0-1.842,0.803-2.776,2.404
	c-0.934,1.604-1.833,3.651-2.697,6.144c-0.864,2.491-1.674,5.237-2.431,8.235c-0.759,2.996-1.455,5.908-2.089,8.73
	c0.528,0.053,1.057,0.098,1.585,0.138c0.529,0.039,1.075,0.084,1.639,0.136c1.058-1.769,2.16-3.686,3.305-5.749
	c1.145-2.062,2.175-4.094,3.093-6.088c0.916-1.994,1.674-3.859,2.273-5.594C251.272,18.678,251.573,17.256,251.573,16.146z
	 M305.827,57.557c0.456,0,0.982,0.053,1.58,0.157c0.597,0.104,1.141,0.308,1.633,0.604c0.491,0.301,0.912,0.705,1.264,1.211
	c0.351,0.511,0.526,1.187,0.526,2.029c0,0.702-0.079,1.412-0.236,2.133c-0.159,0.72-0.474,1.369-0.948,1.947
	c-0.475,0.579-1.15,1.062-2.027,1.449c-0.878,0.387-2.054,0.578-3.529,0.578h-21.855c-1.124,0-2.02-0.201-2.686-0.605
	c-0.667-0.402-1.185-0.896-1.554-1.475c-0.369-0.579-0.606-1.202-0.71-1.868c-0.106-0.667-0.158-1.265-0.158-1.791
	c0-0.456,0.052-0.938,0.158-1.448c0.104-0.508,0.333-0.981,0.685-1.422c0.35-0.438,0.868-0.799,1.553-1.08s1.588-0.422,2.712-0.422
	h23.592V57.557z M308.554,24.577c0-2.954,0.612-5.529,1.839-7.729c1.226-2.197,2.948-4.07,5.17-5.617
	c2.219-1.547,4.884-2.822,7.994-3.824c3.11-1.002,6.529-1.785,10.261-2.348c3.729-0.562,7.727-0.941,11.99-1.137
	c4.264-0.195,8.67-0.293,13.217-0.293c6.11,0,12.51,0.227,19.197,0.683c6.688,0.456,13.666,1.287,20.936,2.492
	c1.686,0.325,2.869,0.911,3.555,1.759c0.684,0.846,1.027,1.791,1.027,2.832c0,0.777-0.159,1.534-0.476,2.271
	c-0.315,0.737-0.736,1.417-1.264,2.038c-0.527,0.622-1.141,1.116-1.845,1.485c-0.701,0.368-1.438,0.553-2.21,0.553
	c-2.705,0-5.523-0.175-8.453-0.525c-2.933-0.35-5.986-0.742-9.163-1.181c-3.18-0.438-6.452-0.875-9.822-1.312
	c-3.371-0.437-6.846-0.765-10.427-0.983c-0.634,4.564-1.532,9.089-2.7,13.573s-2.363,9.078-3.588,13.783
	c-1.227,4.704-2.448,9.4-3.667,14.086c-1.222,4.688-2.392,9.182-3.508,13.479c-1.119,4.296-2.152,8.263-3.097,11.897
	c-0.946,3.635-1.761,6.76-2.439,9.375c-0.292,1.172-0.739,2.248-1.344,3.231c-0.602,0.981-1.274,1.834-2.023,2.56
	c-0.749,0.724-1.521,1.283-2.326,1.681c-0.804,0.397-1.552,0.594-2.244,0.594c-2.08,0-3.793-0.474-5.139-1.421
	c-1.346-0.949-2.02-2.477-2.02-4.582c0-0.667,0.105-1.402,0.314-2.212c0.772-3.101,1.545-6.199,2.319-9.3
	c0.771-3.102,1.579-6.344,2.426-9.734c0.845-3.389,1.917-6.962,3.216-10.719c1.299-3.758,2.738-7.891,4.317-12.403
	c1.581-4.512,3.292-9.57,5.135-15.175c1.845-5.605,3.837-11.843,5.979-18.714c-1.861,0.146-3.748,0.312-5.661,0.496
	c-1.915,0.184-3.774,0.432-5.583,0.744c-1.811,0.312-3.522,0.707-5.143,1.186c-1.623,0.479-3.104,1.084-4.443,1.819
	c-1.34,0.735-2.4,1.618-3.18,2.647c-0.781,1.028-1.17,2.241-1.17,3.639c0,0.074-0.043,0.479-0.125,1.213
	c-0.083,0.735-0.373,1.535-0.869,2.399c-0.497,0.863-1.285,1.654-2.362,2.371c-1.078,0.716-2.61,1.074-4.598,1.074
	c-1.988,0-3.53-0.351-4.623-1.055c-1.095-0.703-1.89-1.478-2.386-2.322C308.952,26.97,308.621,25.845,308.554,24.577z
	 M419.353,81.581c-0.808,1.136-1.888,2.468-3.238,3.993c-1.353,1.527-2.87,2.982-4.556,4.367s-3.492,2.557-5.425,3.516
	c-1.931,0.959-3.861,1.438-5.792,1.438c-2.332,0-4.277-0.737-5.834-2.215c-1.559-1.478-2.902-3.623-4.035-6.438
	c-0.85,0.972-1.895,1.963-3.133,2.97c-1.238,1.009-2.593,1.921-4.061,2.737c-1.469,0.814-3,1.484-4.594,2.005
	c-1.593,0.522-3.185,0.782-4.776,0.782c-1.687,0-3.327-0.346-4.925-1.035c-1.598-0.691-3.01-1.682-4.238-2.977
	c-1.23-1.293-2.212-2.869-2.95-4.729c-0.735-1.859-1.104-3.959-1.104-6.296c0-2.623,0.371-5.317,1.111-8.081
	c0.742-2.764,1.891-5.755,3.443-8.975c1.555-3.22,3.223-6,5.008-8.345c1.782-2.344,3.732-4.39,5.854-6.14
	c2.119-1.749,4.354-3.14,6.701-4.171c2.348-1.032,4.741-1.55,7.18-1.55c0.812,0,1.447,0.161,1.906,0.479
	c0.459,0.319,0.838,0.683,1.141,1.091c0.299,0.408,0.591,0.807,0.873,1.197c0.281,0.39,0.636,0.674,1.06,0.853
	c0.425,0.177,0.854,0.292,1.298,0.345c0.44,0.054,0.894,0.08,1.352,0.08c0.39,0,0.785-0.008,1.19-0.026
	c0.407-0.019,0.806-0.027,1.193-0.027c0.529,0,1.024,0.054,1.483,0.16c0.459,0.107,0.864,0.337,1.217,0.691
	c0.353,0.355,0.624,0.853,0.817,1.49c0.191,0.639,0.289,1.508,0.289,2.607c0,1.68-0.176,3.54-0.525,5.585
	c-0.353,2.048-0.754,4.144-1.206,6.289c-0.454,2.146-0.971,4.595-1.55,7.343c-0.58,2.746-0.869,5.062-0.869,6.944
	c0,1.608,0.148,2.867,0.448,3.774c0.298,0.904,0.938,1.358,1.922,1.358c0.736,0,1.509-0.183,2.316-0.548s1.623-0.843,2.448-1.436
	c0.825-0.592,1.65-1.263,2.476-2.01c0.825-0.75,1.605-1.523,2.345-2.324c1.72-1.881,3.458-4.002,5.214-6.369L419.353,81.581z
	 M374.172,77.455c0,0.906,0.061,1.785,0.186,2.636c0.123,0.851,0.344,1.61,0.66,2.28c0.314,0.671,0.737,1.214,1.266,1.629
	c0.527,0.417,1.195,0.625,2.004,0.625c1.302,0,2.479-0.564,3.535-1.697c1.055-1.131,1.969-2.49,2.742-4.082
	c0.773-1.59,1.397-3.232,1.873-4.931c0.476-1.696,0.783-3.11,0.924-4.241l3.927-17.12c-1.438,0-2.843,0.356-4.212,1.07
	c-1.37,0.713-2.659,1.681-3.871,2.896c-1.212,1.22-2.326,2.61-3.344,4.176c-1.021,1.568-2.021,3.498-3.002,5.797
	c-0.983,2.298-1.678,4.316-2.082,6.056C374.374,74.288,374.172,75.924,374.172,77.455z M431.548,94.632
	c-3.252,0-6.104-0.598-8.562-1.791c-2.455-1.192-4.515-2.791-6.176-4.792c-1.66-2.002-2.916-4.318-3.764-6.951
	c-0.849-2.634-1.271-5.373-1.271-8.216c0-2.034,0.353-4.478,1.059-7.321c0.705-2.844,1.474-5.326,2.303-7.451
	c0.83-2.123,1.853-4.15,3.07-6.083c1.218-1.93,2.629-3.624,4.235-5.081c1.605-1.457,3.396-2.615,5.374-3.477
	c1.977-0.859,4.146-1.29,6.511-1.29c2.13,0,4.101,0.308,5.912,0.921c1.812,0.616,3.361,1.467,4.649,2.555
	c1.288,1.089,2.297,2.379,3.025,3.871c0.728,1.492,1.093,3.099,1.093,4.817c0,1.195-0.17,2.371-0.514,3.53
	c-0.342,1.158-1.007,2.52-1.993,4.081c-0.988,1.562-1.947,2.625-2.878,3.187c-0.933,0.562-1.984,0.842-3.162,0.842
	c-1.775,0-2.923-0.438-3.44-1.316c-0.852-1.368-1.118-2.58-0.806-3.633c0.104-0.561,0.419-1.86,0.944-3.897
	c0.068-0.28,0.088-0.911,0.052-1.896c0-0.842-0.087-1.545-0.262-2.106c-0.175-0.561-0.56-0.843-1.152-0.843
	c-1.434,0-2.658,0.343-3.671,1.027c-1.015,0.686-1.88,1.58-2.596,2.687c-0.718,1.104-1.425,2.668-2.124,4.687
	c-0.699,2.021-1.197,3.713-1.494,5.084c-0.297,1.367-0.48,2.677-0.551,3.924c-0.069,1.246-0.104,2.289-0.104,3.132
	c0,1.265,0.113,2.58,0.341,3.95c0.229,1.369,0.683,2.625,1.363,3.766c0.681,1.143,1.563,2.089,2.647,2.844
	c1.084,0.756,2.481,1.133,4.194,1.133c1.686,0,3.546-0.519,5.582-1.555c2.036-1.035,4.081-2.343,6.135-3.923
	c2.055-1.581,4.012-3.317,5.872-5.214c1.861-1.896,3.458-3.688,4.793-5.372l3.635,6.108c-2.634,3.758-5.478,7.109-8.532,10.06
	c-1.299,1.265-2.711,2.493-4.239,3.687c-1.527,1.193-3.124,2.256-4.792,3.188s-3.406,1.686-5.214,2.264
	C435.233,94.342,433.401,94.632,431.548,94.632z M496.31,57.557c0.456,0,0.982,0.053,1.579,0.157
	c0.599,0.104,1.142,0.308,1.634,0.604c0.491,0.301,0.912,0.705,1.264,1.211c0.352,0.511,0.527,1.187,0.527,2.029
	c0,0.702-0.079,1.412-0.237,2.133c-0.157,0.72-0.475,1.369-0.948,1.947c-0.473,0.579-1.149,1.062-2.027,1.449
	s-2.054,0.578-3.527,0.578h-21.855c-1.124,0-2.02-0.201-2.686-0.605c-0.667-0.402-1.186-0.896-1.554-1.475s-0.604-1.202-0.712-1.868
	c-0.104-0.667-0.156-1.265-0.156-1.791c0-0.456,0.053-0.938,0.156-1.448c0.106-0.508,0.333-0.981,0.687-1.422
	c0.351-0.438,0.869-0.799,1.553-1.08c0.686-0.281,1.588-0.422,2.712-0.422h23.592V57.557z M499.037,24.577
	c0-2.954,0.613-5.529,1.839-7.729c1.227-2.197,2.949-4.07,5.17-5.617c2.22-1.547,4.886-2.822,7.994-3.824
	c3.108-1.002,6.528-1.785,10.26-2.348c3.73-0.562,7.729-0.941,11.991-1.137c4.263-0.196,8.67-0.293,13.218-0.293
	c6.109,0,12.509,0.227,19.198,0.683c6.688,0.456,13.665,1.287,20.933,2.492c1.687,0.325,2.87,0.911,3.556,1.759
	c0.686,0.846,1.026,1.791,1.026,2.832c0,0.777-0.157,1.534-0.475,2.271c-0.315,0.737-0.736,1.417-1.264,2.038
	c-0.526,0.622-1.142,1.116-1.845,1.485c-0.701,0.368-1.438,0.553-2.211,0.553c-2.703,0-5.521-0.175-8.452-0.525
	c-2.933-0.35-5.985-0.742-9.163-1.181c-3.179-0.438-6.45-0.875-9.821-1.312s-6.847-0.765-10.427-0.983
	c-0.633,4.564-1.532,9.089-2.7,13.573s-2.364,9.078-3.588,13.783c-1.226,4.704-2.447,9.4-3.668,14.086
	c-1.221,4.688-2.391,9.182-3.509,13.479c-1.119,4.296-2.149,8.263-3.096,11.897c-0.947,3.635-1.76,6.76-2.439,9.375
	c-0.293,1.172-0.739,2.248-1.343,3.231c-0.602,0.981-1.275,1.834-2.023,2.56c-0.748,0.724-1.523,1.283-2.327,1.681
	c-0.803,0.396-1.551,0.594-2.243,0.594c-2.081,0-3.794-0.474-5.139-1.421c-1.348-0.949-2.021-2.477-2.021-4.582
	c0-0.667,0.104-1.402,0.315-2.212c0.771-3.101,1.544-6.199,2.316-9.3c0.772-3.102,1.58-6.344,2.427-9.734
	c0.845-3.389,1.917-6.962,3.216-10.719c1.299-3.758,2.739-7.891,4.317-12.403c1.581-4.512,3.293-9.57,5.136-15.175
	c1.845-5.605,3.836-11.843,5.979-18.714c-1.861,0.146-3.749,0.312-5.662,0.496c-1.913,0.184-3.773,0.432-5.582,0.744
	s-3.521,0.707-5.144,1.186s-3.104,1.084-4.442,1.819c-1.341,0.735-2.4,1.618-3.181,2.647c-0.78,1.028-1.17,2.241-1.17,3.639
	c0,0.074-0.043,0.479-0.125,1.213c-0.083,0.735-0.372,1.535-0.87,2.399c-0.497,0.863-1.283,1.654-2.361,2.371
	c-1.076,0.716-2.608,1.074-4.598,1.074s-3.529-0.351-4.623-1.055c-1.095-0.703-1.889-1.478-2.386-2.322
	C499.436,26.97,499.104,25.845,499.037,24.577z M586.88,54.027c1.019,2.035,1.782,4.188,2.291,6.451
	c0.509,2.265,0.764,4.818,0.764,7.662c0,2.071-0.229,4.161-0.685,6.269c-0.457,2.106-1.115,4.143-1.975,6.108
	c-0.861,1.967-1.915,3.81-3.16,5.528c-1.246,1.722-2.668,3.213-4.267,4.478c-1.598,1.265-3.344,2.264-5.239,3.002
	c-1.896,0.738-3.915,1.105-6.058,1.105c-3.09,0-5.73-0.676-7.925-2.027c-2.195-1.352-3.994-3.115-5.397-5.293
	c-1.404-2.177-2.433-4.635-3.081-7.373c-0.649-2.737-0.975-5.512-0.975-8.32c0-4.635,0.579-8.628,1.737-11.98
	c1.159-3.353,2.818-6.268,4.977-8.743c2.16-2.475,4.802-4.423,7.928-5.846c3.123-1.421,6.636-2.132,10.531-2.132
	c3.335,0,6.459,0.519,9.374,1.554c2.914,1.036,5.644,2.423,8.189,4.161c2.545,1.737,4.915,3.923,7.107,6.555
	c2.194,2.635,4.24,5.146,6.137,7.531l-1.001,7.426c-0.947-1.264-2.229-2.633-3.845-4.106c-1.615-1.476-3.326-3.106-5.135-4.897
	s-3.59-3.31-5.345-4.556c-1.756-1.245-3.266-2.291-4.529-3.134L586.88,54.027z M570.607,84.52c1.191,0,2.352-0.604,3.476-1.815
	c1.123-1.212,2.104-2.738,2.948-4.582c0.843-1.843,1.52-4.072,2.027-6.688c0.51-2.615,0.765-4.941,0.765-6.979
	c0-1.614-0.123-3.115-0.368-4.503c-0.246-1.386-0.615-2.589-1.106-3.606c-0.491-1.019-1.124-1.826-1.896-2.424
	c-0.771-0.596-1.703-0.895-2.79-0.895c-1.44,0-2.81,0.613-4.108,1.843c-1.298,1.229-2.439,2.801-3.423,4.714
	c-0.982,1.914-1.756,4.027-2.316,6.346c-0.562,2.317-0.843,4.934-0.843,7.848c0,1.476,0.14,2.861,0.42,4.16
	c0.281,1.299,0.721,2.432,1.317,3.396c0.597,0.966,1.387,1.736,2.37,2.316C568.061,84.23,569.237,84.52,570.607,84.52z
	 M617.609,94.632c-3.278,0-6.146-0.606-8.606-1.821c-2.458-1.217-4.508-2.851-6.146-4.906c-1.64-2.055-2.868-4.432-3.688-7.129
	s-1.229-5.53-1.229-8.496c0-1.94,0.365-4.252,1.101-6.939c0.732-2.686,1.492-5.066,2.277-7.146c0.784-2.077,1.771-4.062,2.96-5.95
	c1.188-1.888,2.575-3.552,4.164-4.989c1.59-1.438,3.37-2.582,5.344-3.431c1.972-0.85,4.164-1.273,6.572-1.273
	c1.969,0,3.796,0.315,5.482,0.946c1.688,0.631,3.154,1.517,4.402,2.656c1.248,1.139,2.224,2.517,2.927,4.129
	c0.702,1.613,1.054,3.419,1.054,5.418c0,2.128-0.712,4.515-2.137,7.156c-1.426,2.645-3.088,4.91-4.987,6.797
	c-1.899,1.89-4.16,3.57-6.781,5.048c-2.621,1.477-5.462,2.627-8.522,3.45c0.528,0.927,1.048,1.699,1.56,2.317
	c0.511,0.617,1.03,1.099,1.561,1.441c0.527,0.344,1.083,0.583,1.664,0.72c0.58,0.139,1.206,0.206,1.877,0.206
	c2.106,0,4.326-0.41,6.662-1.233c2.334-0.826,4.606-1.854,6.818-3.092c2.213-1.236,4.301-2.583,6.268-4.042s3.635-2.841,5.003-4.146
	l6.794,6.9c-3.09,3.291-6.372,6.2-9.848,8.731c-1.511,1.085-3.135,2.151-4.871,3.2c-1.738,1.048-3.564,1.979-5.479,2.793
	c-1.914,0.812-3.896,1.464-5.951,1.951C621.799,94.389,619.717,94.632,617.609,94.632z M610.579,69.549
	c1.269,0,2.651-0.316,4.148-0.951c1.497-0.636,2.89-1.451,4.177-2.447c1.286-0.994,2.546-2.334,3.778-4.018
	c1.233-1.681,1.852-3.07,1.852-4.17c0-1.544-0.291-2.814-0.872-3.811c-0.582-0.996-1.296-1.493-2.143-1.493
	c-1.516,0-2.811,0.275-3.885,0.823c-1.075,0.551-1.974,1.263-2.695,2.138c-0.724,0.875-1.305,1.87-1.744,2.985
	c-0.441,1.117-0.952,2.498-1.533,4.146c-0.582,1.646-0.907,3.003-0.979,4.067C610.613,67.884,610.579,68.793,610.579,69.549z"/>
</svg>
